<?xml version="1.0" encoding="UTF-8"?>
<!DOCTYPE svg PUBLIC "-//W3C//DTD SVG 1.1//EN" "http://www.w3.org/Graphics/SVG/1.1/DTD/svg11.dtd">
<svg xmlns="http://www.w3.org/2000/svg" xmlns:xlink="http://www.w3.org/1999/xlink" width="565px" height="306px" version="1.1"><defs><linearGradient x1="0%" y1="0%" x2="0%" y2="100%" id="mx-gradient-ffcd28-1-ffa500-1-s-0"><stop offset="0%" style="stop-color:#FFCD28"/><stop offset="100%" style="stop-color:#FFA500"/></linearGradient><linearGradient x1="0%" y1="0%" x2="0%" y2="100%" id="mx-gradient-ffffff-0.9-ffffff-0.1-s-0"><stop offset="0%" style="stop-color:#ffffff;stop-opacity:0.9"/><stop offset="100%" style="stop-color:#ffffff;stop-opacity:0.1"/></linearGradient><linearGradient x1="0%" y1="0%" x2="0%" y2="100%" id="mx-gradient-dae8fc-1-7ea6e0-1-s-0"><stop offset="0%" style="stop-color:#DAE8FC"/><stop offset="100%" style="stop-color:#7EA6E0"/></linearGradient><linearGradient x1="0%" y1="0%" x2="0%" y2="100%" id="mx-gradient-d5e8d4-1-97d077-1-s-0"><stop offset="0%" style="stop-color:#D5E8D4"/><stop offset="100%" style="stop-color:#97D077"/></linearGradient></defs><g transform="translate(0.5,0.5)"><rect x="1" y="111" width="120" height="60" fill="#d0d0d0" stroke="#d0d0d0" transform="translate(2,3)" opacity="1"/><rect x="1" y="111" width="120" height="60" fill="url(#mx-gradient-ffcd28-1-ffa500-1-s-0)" stroke="#d79b00" pointer-events="none"/><path d="M 0 110 L 0 135 Q 61 153 122 135 L 122 110 Z" fill="url(#mx-gradient-ffffff-0.9-ffffff-0.1-s-0)" stroke="none" pointer-events="none"/><g fill="#000000" font-family="Helvetica" text-anchor="middle" font-size="12px"><text x="60.75" y="144.75">RegisterCriteria</text></g><ellipse cx="241" cy="41" rx="60" ry="40" fill="#d0d0d0" stroke="#d0d0d0" transform="translate(2,3)" opacity="1"/><ellipse cx="241" cy="41" rx="60" ry="40" fill="url(#mx-gradient-dae8fc-1-7ea6e0-1-s-0)" stroke="#6c8ebf" pointer-events="none"/><g fill="#000000" font-family="Helvetica" text-anchor="middle" font-size="12px"><text x="240.75" y="44.75">AND</text></g><rect x="221" y="241" width="120" height="60" fill="#d0d0d0" stroke="#d0d0d0" transform="translate(2,3)" opacity="1"/><rect x="221" y="241" width="120" height="60" fill="url(#mx-gradient-ffcd28-1-ffa500-1-s-0)" stroke="#d79b00" pointer-events="none"/><path d="M 220 240 L 220 265 Q 281 283 342 265 L 342 240 Z" fill="url(#mx-gradient-ffffff-0.9-ffffff-0.1-s-0)" stroke="none" pointer-events="none"/><g fill="#000000" font-family="Helvetica" text-anchor="middle" font-size="12px"><text x="280.75" y="274.75">ArcadeBetCriteria</text></g><path d="M 181 41 L 66.5 107.79" fill="none" stroke="#000000" stroke-miterlimit="10" pointer-events="none"/><path d="M 61.97 110.44 L 66.25 103.89 L 66.5 107.79 L 69.78 109.93 Z" fill="#000000" stroke="#000000" stroke-miterlimit="10" pointer-events="none"/><ellipse cx="391" cy="141" rx="60" ry="40" fill="#d0d0d0" stroke="#d0d0d0" transform="translate(2,3)" opacity="1"/><ellipse cx="391" cy="141" rx="60" ry="40" fill="url(#mx-gradient-d5e8d4-1-97d077-1-s-0)" stroke="#82b366" pointer-events="none"/><g fill="#000000" font-family="Helvetica" text-anchor="middle" font-size="12px"><text x="390.75" y="144.75">OR</text></g><path d="M 301 41 L 385.7 97.47" fill="none" stroke="#000000" stroke-miterlimit="10" pointer-events="none"/><path d="M 390.07 100.38 L 382.3 99.41 L 385.7 97.47 L 386.19 93.58 Z" fill="#000000" stroke="#000000" stroke-miterlimit="10" pointer-events="none"/><rect x="441" y="241" width="120" height="60" fill="#d0d0d0" stroke="#d0d0d0" transform="translate(2,3)" opacity="1"/><rect x="441" y="241" width="120" height="60" fill="url(#mx-gradient-ffcd28-1-ffa500-1-s-0)" stroke="#d79b00" pointer-events="none"/><path d="M 440 240 L 440 265 Q 501 283 562 265 L 562 240 Z" fill="url(#mx-gradient-ffffff-0.9-ffffff-0.1-s-0)" stroke="none" pointer-events="none"/><g fill="#000000" font-family="Helvetica" text-anchor="middle" font-size="12px"><text x="500.75" y="274.75">SportsBetCriteria</text></g><path d="M 349 169 L 275.68 236.68" fill="none" stroke="#000000" stroke-miterlimit="10" pointer-events="none"/><path d="M 271.82 240.24 L 274.59 232.92 L 275.68 236.68 L 279.34 238.07 Z" fill="#000000" stroke="#000000" stroke-miterlimit="10" pointer-events="none"/><path d="M 426.48 173.26 L 496.29 236.72" fill="none" stroke="#000000" stroke-miterlimit="10" pointer-events="none"/><path d="M 500.17 240.25 L 492.64 238.13 L 496.29 236.72 L 497.35 232.95 Z" fill="#000000" stroke="#000000" stroke-miterlimit="10" pointer-events="none"/></g></svg>